HIERARCHY
ROOT Hips
{
	OFFSET 0.00 0.00 0.00
	CHANNELS 6 Xposition Yposition Zposition Yrotation Xrotation Zrotation
	JOINT LHipJoint
	{
		OFFSET	0.0000	0.0000	0.0000
		CHANNELS 3 Yrotation Xrotation Zrotation
		JOINT LeftUpLeg
		{
			OFFSET	1.0138	-0.0809	-0.0827
			CHANNELS 3 Yrotation Xrotation Zrotation
			JOINT LeftLeg
			{
				OFFSET	0.4110	-3.9095	0.3245
				CHANNELS 3 Yrotation Xrotation Zrotation
				JOINT LeftFoot
				{
					OFFSET	0.3810	-4.0555	-0.1470
					CHANNELS 3 Yrotation Xrotation Zrotation
					JOINT LeftToeBase
					{
						OFFSET	0.1396	-0.4462	1.3079
						CHANNELS 3 Yrotation Xrotation Zrotation
						End Site
						{
							OFFSET 0.0161 -0.0248 0.1809
						}
					}
				}
			}
		}
	}
	JOINT LowerBack
	{
		OFFSET	0.0000	0.7977	-0.3873
		CHANNELS 3 Yrotation Xrotation Zrotation
		JOINT Spine
		{
			OFFSET	0.0000	1.4131	0.1715
			CHANNELS 3 Yrotation Xrotation Zrotation
			JOINT Spine1
			{
				OFFSET	0.0000	1.4392	-0.1032
				CHANNELS 3 Yrotation Xrotation Zrotation
				JOINT LeftShoulder
				{
					OFFSET	0.2274	1.0382	0.4032
					CHANNELS 3 Yrotation Xrotation Zrotation
					JOINT LeftArm
					{
						OFFSET	1.4730	-0.2267	-0.0231
						CHANNELS 3 Yrotation Xrotation Zrotation
						JOINT LeftForeArm
						{
							OFFSET	1.6131	-1.8059	0.0081
							CHANNELS 3 Yrotation Xrotation Zrotation
							JOINT LeftHand
							{
								OFFSET	1.2197	-1.2423	1.6317
								CHANNELS 3 Yrotation Xrotation Zrotation
								JOINT LThumb
								{
									OFFSET	0.0109	-0.0753	0.4387
									CHANNELS 3 Yrotation Xrotation Zrotation
									End Site
									{
										OFFSET -0.2090 -0.0868 0.2097
									}
								}
								JOINT LeftFingerBase
								{
									OFFSET	0.1071	-0.1567	0.2607
									CHANNELS 3 Yrotation Xrotation Zrotation
									JOINT LeftHandFinger1
									{
										OFFSET	0.1706	-0.2492	0.6830
										CHANNELS 3 Yrotation Xrotation Zrotation
										End Site
										{
											OFFSET 0.0335 -0.1507 0.2071
										}
									}
								}
							}
						}
					}
				}
				JOINT Neck
				{
					OFFSET	0.0000	1.7498	0.2381
					CHANNELS 3 Yrotation Xrotation Zrotation
					JOINT Neck1
					{
						OFFSET	0.0000	0.5043	0.1959
						CHANNELS 3 Yrotation Xrotation Zrotation
						JOINT Head
						{
							OFFSET	0.0000	0.5044	0.1959
							CHANNELS 3 Yrotation Xrotation Zrotation
							End Site
							{
								OFFSET 0.0000 1.4798 -0.0693
							}
						}
					}
				}
				JOINT RightShoulder
				{
					OFFSET	-0.2274	1.0382	0.4032
					CHANNELS 3 Yrotation Xrotation Zrotation
					JOINT RightArm
					{
						OFFSET	-1.4730	-0.2267	-0.0231
						CHANNELS 3 Yrotation Xrotation Zrotation
						JOINT RightForeArm
						{
							OFFSET	-1.6131	-1.8059	0.0081
							CHANNELS 3 Yrotation Xrotation Zrotation
							JOINT RightHand
							{
								OFFSET	-1.2197	-1.2423	1.6317
								CHANNELS 3 Yrotation Xrotation Zrotation
								JOINT RThumb
								{
									OFFSET	-0.0109	-0.0753	0.4387
									CHANNELS 3 Yrotation Xrotation Zrotation
									End Site
									{
										OFFSET 0.2090 -0.0868 0.2097
									}
								}
								JOINT RightFingerBase
								{
									OFFSET	-0.1071	-0.1567	0.2607
									CHANNELS 3 Yrotation Xrotation Zrotation
									JOINT RightHandFinger1
									{
										OFFSET	-0.1706	-0.2492	0.6830
										CHANNELS 3 Yrotation Xrotation Zrotation
										End Site
										{
											OFFSET -0.0335 -0.1507 0.2071
										}
									}
								}
							}
						}
					}
				}
			}
		}
	}
	JOINT RHipJoint
	{
		OFFSET	0.0000	0.0000	0.0000
		CHANNELS 3 Yrotation Xrotation Zrotation
		JOINT RightUpLeg
		{
			OFFSET	-1.0138	-0.0809	-0.0827
			CHANNELS 3 Yrotation Xrotation Zrotation
			JOINT RightLeg
			{
				OFFSET	-0.4110	-3.9095	0.3245
				CHANNELS 3 Yrotation Xrotation Zrotation
				JOINT RightFoot
				{
					OFFSET	-0.3810	-4.0555	-0.1470
					CHANNELS 3 Yrotation Xrotation Zrotation
					JOINT RightToeBase
					{
						OFFSET	-0.1396	-0.4462	1.3079
						CHANNELS 3 Yrotation Xrotation Zrotation
						End Site
						{
							OFFSET -0.0161 -0.0248 0.1809
						}
					}
				}
			}
		}
	}
}
MOTION
Frames: 9
Frame Time: 0.0333333
0.0173 8.6832 0.1062 -5.2344 -3.7377 -3.1832 0.0000 -0.0000 0.0000 15.4927 -7.5891 1.6702 3.2808 12.7746 4.7516 0.5393 -2.4668 -1.6461 0.0000 -4.9285 0.0000 0.0000 -0.0000 0.0000 0.7255 1.8700 2.0104 1.5140 3.7201 3.6997 -17.4448 1.0012 -3.2145 -20.3142 0.6119 -31.7231 29.9308 30.2124 5.9892 23.2305 -3.4875 -25.4881 25.5061 -2.3861 12.1143 0.8522 13.7957 -3.6817 -6.4409 -3.9207 -2.4811 -0.0794 5.6263 0.4469 -0.1004 5.6216 0.4821 1.6280 -13.1676 -0.9079 15.3469 1.1603 5.6048 29.4912 7.2723 25.0816 -25.4576 26.7561 -3.9255 -16.5352 1.6761 15.2302 -24.4738 -3.2534 -10.2851 -1.2254 13.1427 3.2483 6.6723 -4.1923 2.5305 0.0000 -0.0000 0.0000 -10.2307 5.0035 8.7428 -10.2898 4.8070 -4.2093 -1.1476 -6.6826 -1.7292 -0.0000 -7.2829 0.0000 
0.0174 8.6833 0.1062 -5.2331 -3.7200 -3.1852 0.0000 -0.0000 0.0000 15.4803 -7.6066 1.6675 3.2861 12.7756 4.7532 0.5394 -2.4618 -1.6466 0.0000 -4.9331 -0.0000 0.0000 -0.0000 0.0000 0.7226 1.8682 2.0097 1.5080 3.7164 3.6971 -17.4492 1.0014 -3.2077 -20.3229 0.6194 -31.7301 29.9333 30.2143 5.9905 23.2310 -3.4814 -25.4859 25.5061 -2.3861 12.1143 0.8522 13.7957 -3.6817 -6.4409 -3.9208 -2.4811 -0.0790 5.6268 0.4480 -0.1001 5.6221 0.4830 1.6280 -13.1654 -0.9105 15.3507 1.1607 5.5947 29.4939 7.2759 25.0783 -25.4609 26.7587 -3.9269 -16.5299 1.6801 15.2249 -24.4738 -3.2534 -10.2851 -1.2253 13.1427 3.2483 6.6723 -4.1923 2.5304 0.0000 -0.0000 0.0000 -10.2269 4.9951 8.7477 -10.2871 4.7904 -4.2064 -1.1507 -6.6745 -1.7297 -0.0000 -7.2776 0.0000 
0.0175 8.6835 0.1066 -5.2419 -3.7069 -3.1867 0.0000 -0.0000 0.0000 15.4734 -7.6122 1.6673 3.2977 12.7691 4.7544 0.5391 -2.4564 -1.6452 -0.0000 -4.9408 -0.0000 0.0000 -0.0000 0.0000 0.7149 1.8634 2.0082 1.4923 3.7072 3.6903 -17.4606 1.0013 -3.1900 -20.3456 0.6393 -31.7484 29.9399 30.2191 5.9937 23.2319 -3.4652 -25.4804 25.5061 -2.3861 12.1143 0.8522 13.7957 -3.6817 -6.4409 -3.9207 -2.4811 -0.0783 5.6276 0.4505 -0.0994 5.6231 0.4854 1.6278 -13.1603 -0.9172 15.3599 1.1615 5.5679 29.5010 7.2851 25.0694 -25.4692 26.7655 -3.9305 -16.5159 1.6901 15.2114 -24.4738 -3.2534 -10.2851 -1.2254 13.1427 3.2483 6.6723 -4.1923 2.5304 0.0000 -0.0000 0.0000 -10.2220 5.0006 8.7524 -10.2846 4.7565 -4.2033 -1.1511 -6.6586 -1.7302 -0.0000 -7.2693 0.0000 
0.0176 8.6837 0.1072 -5.2544 -3.6970 -3.1861 0.0000 -0.0000 0.0000 15.4656 -7.6092 1.6655 3.3152 12.7576 4.7585 0.5393 -2.4518 -1.6479 -0.0000 -4.9465 0.0000 0.0000 -0.0000 0.0000 0.7038 1.8566 2.0044 1.4699 3.6939 3.6805 -17.4757 1.0020 -3.1649 -20.3770 0.6678 -31.7745 29.9490 30.2258 5.9981 23.2327 -3.4417 -25.4731 25.5061 -2.3861 12.1143 0.8522 13.7957 -3.6817 -6.4409 -3.9207 -2.4811 -0.0771 5.6291 0.4546 -0.0982 5.6243 0.4889 1.6275 -13.1541 -0.9261 15.3715 1.1631 5.5319 29.5112 7.2978 25.0562 -25.4802 26.7744 -3.9353 -16.4965 1.7033 15.1932 -24.4738 -3.2534 -10.2851 -1.2254 13.1427 3.2483 6.6723 -4.1923 2.5304 0.0000 -0.0000 0.0000 -10.2239 5.0090 8.7505 -10.2810 4.7254 -4.1964 -1.1411 -6.6445 -1.7322 0.0000 -7.2637 -0.0000 
0.0178 8.6841 0.1079 -5.2745 -3.6918 -3.1862 0.0000 -0.0000 0.0000 15.4614 -7.5955 1.6668 3.3347 12.7380 4.7636 0.5403 -2.4480 -1.6567 -0.0000 -4.9451 0.0000 0.0000 -0.0000 0.0000 0.6911 1.8488 1.9999 1.4440 3.6788 3.6693 -17.4921 1.0024 -3.1365 -20.4121 0.7010 -31.8048 29.9591 30.2332 6.0031 23.2325 -3.4139 -25.4655 25.5061 -2.3861 12.1143 0.8522 13.7957 -3.6817 -6.4409 -3.9207 -2.4811 -0.0757 5.6303 0.4590 -0.0969 5.6257 0.4930 1.6270 -13.1490 -0.9353 15.3821 1.1650 5.4924 29.5230 7.3119 25.0402 -25.4918 26.7838 -3.9403 -16.4752 1.7169 15.1738 -24.4738 -3.2534 -10.2851 -1.2254 13.1427 3.2483 6.6723 -4.1923 2.5304 0.0000 -0.0000 0.0000 -10.2284 5.0283 8.7462 -10.2754 4.6832 -4.1851 -1.1180 -6.6243 -1.7373 0.0000 -7.2615 -0.0000 
0.0178 8.6845 0.1088 -5.3076 -3.6895 -3.1880 0.0000 -0.0000 0.0000 15.4653 -7.5735 1.6735 3.3630 12.7098 4.7675 0.5416 -2.4457 -1.6674 -0.0000 -4.9391 0.0000 0.0000 -0.0000 0.0000 0.6781 1.8410 1.9965 1.4178 3.6637 3.6579 -17.5066 1.0033 -3.1083 -20.4456 0.7350 -31.8357 29.9688 30.2403 6.0078 23.2305 -3.3847 -25.4595 25.5061 -2.3861 12.1143 0.8522 13.7957 -3.6817 -6.4409 -3.9207 -2.4811 -0.0742 5.6313 0.4639 -0.0953 5.6267 0.4974 1.6263 -13.1469 -0.9429 15.3885 1.1673 5.4566 29.5352 7.3253 25.0228 -25.5017 26.7918 -3.9446 -16.4551 1.7278 15.1567 -24.4738 -3.2534 -10.2851 -1.2254 13.1427 3.2483 6.6723 -4.1923 2.5304 0.0000 -0.0000 0.0000 -10.2294 5.0572 8.7448 -10.2700 4.6250 -4.1731 -1.0871 -6.5946 -1.7441 -0.0000 -7.2573 0.0000 
0.0179 8.6849 0.1095 -5.3504 -3.6849 -3.1900 0.0000 -0.0000 0.0000 15.4729 -7.5517 1.6811 3.4046 12.6780 4.7718 0.5425 -2.4465 -1.6750 0.0000 -4.9319 0.0000 0.0000 -0.0000 0.0000 0.6664 1.8342 1.9945 1.3943 3.6505 3.6478 -17.5163 1.0044 -3.0842 -20.4723 0.7660 -31.8636 29.9766 30.2460 6.0116 23.2260 -3.3570 -25.4563 25.5061 -2.3861 12.1143 0.8522 13.7957 -3.6817 -6.4409 -3.9208 -2.4811 -0.0726 5.6316 0.4684 -0.0937 5.6272 0.5016 1.6253 -13.1497 -0.9470 15.3876 1.1700 5.4307 29.5462 7.3358 25.0055 -25.5075 26.7966 -3.9471 -16.4394 1.7333 15.1453 -24.4738 -3.2534 -10.2851 -1.2254 13.1427 3.2483 6.6723 -4.1923 2.5305 0.0000 -0.0000 0.0000 -10.2281 5.0828 8.7452 -10.2659 4.5649 -4.1623 -1.0522 -6.5624 -1.7515 -0.0000 -7.2487 0.0000 
0.0179 8.6851 0.1102 -5.3940 -3.6782 -3.1912 0.0000 -0.0000 0.0000 15.4773 -7.5409 1.6863 3.4541 12.6632 4.7807 0.5427 -2.4553 -1.6794 0.0000 -4.9245 -0.0000 0.0000 -0.0000 0.0000 0.6551 1.8286 1.9917 1.3716 3.6397 3.6388 -17.5174 1.0063 -3.0661 -20.4907 0.7976 -31.8905 29.9818 30.2497 6.0141 23.2163 -3.3276 -25.4612 25.5061 -2.3861 12.1143 0.8522 13.7957 -3.6817 -6.4409 -3.9207 -2.4811 -0.0708 5.6293 0.4724 -0.0919 5.6248 0.5052 1.6205 -13.1620 -0.9413 15.3687 1.1740 5.4240 29.5599 7.3426 24.9835 -25.5058 26.7952 -3.9464 -16.4326 1.7278 15.1446 -24.4738 -3.2534 -10.2851 -1.2254 13.1427 3.2483 6.6723 -4.1923 2.5304 0.0000 -0.0000 0.0000 -10.2264 5.0881 8.7444 -10.2635 4.5396 -4.1566 -1.0130 -6.5467 -1.7565 0.0000 -7.2405 -0.0000 
0.0180 8.6850 0.1110 -5.4357 -3.6750 -3.1930 0.0000 -0.0000 0.0000 15.4797 -7.5404 1.6917 3.5032 12.6735 4.7930 0.5428 -2.4704 -1.6835 0.0000 -4.9215 -0.0000 0.0000 -0.0000 0.0000 0.6435 1.8250 1.9889 1.3481 3.6328 3.6320 -17.5217 1.0069 -3.0548 -20.5165 0.8316 -31.9154 29.9882 30.2544 6.0173 23.2137 -3.3016 -25.4710 25.5061 -2.3861 12.1143 0.8522 13.7957 -3.6817 -6.4409 -3.9208 -2.4811 -0.0708 5.6225 0.4725 -0.0917 5.6182 0.5049 1.6022 -13.1586 -0.9268 15.3471 1.1782 5.4202 29.5839 7.3504 24.9633 -25.5048 26.7944 -3.9460 -16.4320 1.7272 15.1410 -24.4738 -3.2534 -10.2851 -1.2254 13.1427 3.2483 6.6723 -4.1923 2.5305 0.0000 -0.0000 0.0000 -10.2230 5.0823 8.7430 -10.2633 4.5435 -4.1560 -0.9696 -6.5458 -1.7586 0.0000 -7.2377 -0.0000 
